<svg preserveAspectRatio="none" overflow="visible" style="display: block;" width="16" height="16" viewBox="0 0 16 16" fill="none" xmlns="http://www.w3.org/2000/svg">
<g id="InstagramLogo">
<path id="Vector" d="M8 5C7.40666 5 6.82664 5.17595 6.33329 5.50559C5.83994 5.83524 5.45542 6.30377 5.22836 6.85195C5.0013 7.40013 4.94189 8.00333 5.05764 8.58527C5.1734 9.16721 5.45912 9.70176 5.87868 10.1213C6.29824 10.5409 6.83279 10.8266 7.41473 10.9424C7.99667 11.0581 8.59987 10.9987 9.14805 10.7716C9.69623 10.5446 10.1648 10.1601 10.4944 9.66671C10.8241 9.17336 11 8.59334 11 8C10.9992 7.2046 10.6828 6.44202 10.1204 5.87959C9.55798 5.31716 8.7954 5.00083 8 5ZM8 10C7.60444 10 7.21776 9.8827 6.88886 9.66294C6.55996 9.44318 6.30362 9.13082 6.15224 8.76537C6.00087 8.39991 5.96126 7.99778 6.03843 7.60982C6.1156 7.22186 6.30608 6.86549 6.58579 6.58579C6.86549 6.30608 7.22186 6.1156 7.60982 6.03843C7.99778 5.96126 8.39991 6.00087 8.76537 6.15224C9.13082 6.30362 9.44318 6.55996 9.66294 6.88886C9.8827 7.21776 10 7.60444 10 8C10 8.53043 9.78929 9.03914 9.41421 9.41421C9.03914 9.78929 8.53043 10 8 10ZM11 1.5H5C4.07205 1.50099 3.18238 1.87006 2.52622 2.52622C1.87006 3.18238 1.50099 4.07205 1.5 5V11C1.50099 11.928 1.87006 12.8176 2.52622 13.4738C3.18238 14.1299 4.07205 14.499 5 14.5H11C11.928 14.499 12.8176 14.1299 13.4738 13.4738C14.1299 12.8176 14.499 11.928 14.5 11V5C14.499 4.07205 14.1299 3.18238 13.4738 2.52622C12.8176 1.87006 11.928 1.50099 11 1.5ZM13.5 11C13.5 11.663 13.2366 12.2989 12.7678 12.7678C12.2989 13.2366 11.663 13.5 11 13.5H5C4.33696 13.5 3.70107 13.2366 3.23223 12.7678C2.76339 12.2989 2.5 11.663 2.5 11V5C2.5 4.33696 2.76339 3.70107 3.23223 3.23223C3.70107 2.76339 4.33696 2.5 5 2.5H11C11.663 2.5 12.2989 2.76339 12.7678 3.23223C13.2366 3.70107 13.5 4.33696 13.5 5V11ZM12 4.75C12 4.89834 11.956 5.04334 11.8736 5.16668C11.7912 5.29001 11.6741 5.38614 11.537 5.44291C11.4 5.49968 11.2492 5.51453 11.1037 5.48559C10.9582 5.45665 10.8246 5.38522 10.7197 5.28033C10.6148 5.17544 10.5433 5.0418 10.5144 4.89632C10.4855 4.75083 10.5003 4.60003 10.5571 4.46299C10.6139 4.32594 10.71 4.20881 10.8333 4.1264C10.9567 4.04399 11.1017 4 11.25 4C11.4489 4 11.6397 4.07902 11.7803 4.21967C11.921 4.36032 12 4.55109 12 4.75Z" fill="#9699A3"/>
</g>
</svg>
