<svg preserveAspectRatio="none" overflow="visible" style="display: block;" width="90.776" height="16.1189" viewBox="0 0 90.776 16.1189" fill="none" xmlns="http://www.w3.org/2000/svg">
<g id="EVEJEAN">
<path id="Vector" d="M90.776 0.738925V15.9114H88.998L80.7302 3.99864H80.582V15.9114H78.7447V0.738925H80.5228L88.8202 12.6813H88.9684V0.738925H90.776Z" fill="#DAD2C9"/>
<path id="Vector_2" d="M65.269 15.9114H63.3428L68.9139 0.738925H70.8105L76.3816 15.9114H74.4554L69.9215 3.13926H69.8029L65.269 15.9114ZM65.9802 9.98465H73.7442V11.6145H65.9802V9.98465Z" fill="#DAD2C9"/>
<path id="Vector_3" d="M52.1784 15.9114V0.738925H61.3352V2.36878H54.0157V7.49542H60.861V9.12528H54.0157V14.2815H61.4537V15.9114H52.1784Z" fill="#DAD2C9"/>
<path id="Vector_4" d="M46.6585 0.738925H48.4958V11.5849C48.4958 12.5529 48.318 13.3752 47.9624 14.0519C47.6068 14.7285 47.1055 15.2422 46.4585 15.5928C45.8115 15.9435 45.0484 16.1188 44.1693 16.1188C43.3396 16.1188 42.6012 15.9682 41.9542 15.6669C41.3072 15.3607 40.7985 14.9261 40.4281 14.363C40.0576 13.8 39.8724 13.1308 39.8724 12.3553H41.6801C41.6801 12.785 41.7863 13.1604 41.9986 13.4814C42.216 13.7975 42.5123 14.0445 42.8877 14.2223C43.263 14.4001 43.6902 14.489 44.1693 14.489C44.6978 14.489 45.1472 14.3779 45.5176 14.1556C45.8881 13.9333 46.1696 13.6074 46.3622 13.1777C46.5598 12.7431 46.6585 12.2121 46.6585 11.5849V0.738925Z" fill="#DAD2C9"/>
<path id="Vector_5" d="M27.8637 15.9132V0.000145815H37.4675V1.70955H29.7907V7.08641H36.9702V8.79582H29.7907V14.2038H37.5918V15.9132H27.8637Z" fill="#DAD2C9"/>
<path id="Vector_6" d="M13.73 0.000145815L18.4542 13.3957H18.6407L23.3649 0.000145815H25.3851L19.542 15.9132H17.5529L11.7098 0.000145815H13.73Z" fill="#DAD2C9"/>
<path id="Vector_7" d="M3.77004e-05 15.913V3.19362e-06H9.6038V1.70941H1.92701V7.08627H9.10651V8.79568H1.92701V14.2036H9.72812V15.913H3.77004e-05Z" fill="#DAD2C9"/>
</g>
</svg>
